<svg width="128" height="85" viewBox="0 0 128 85" fill="none" xmlns="http://www.w3.org/2000/svg">
<path d="M98.9768 4.92679e-06H113.116V7.06977H120.186V14.1395H106.047V7.06977H98.9768V4.92679e-06ZM49.4885 56.5581H35.3489V49.4884H49.4885V21.2093H42.4187V14.1395H28.2792V7.06977H14.1396V4.92679e-06H49.4885V7.06977H63.628V4.92679e-06H77.7675V7.06977H70.6978V14.1395H63.628V63.6279H70.6978V70.6977H77.7675V77.7675H106.047V84.8372H63.628V77.7675H56.5582V70.6977H49.4885V56.5581ZM120.186 4.92679e-06H127.256V7.06977H120.186V4.92679e-06ZM7.06986 7.06977H14.1396V14.1395H7.06986V7.06977ZM91.9071 7.06977H98.9768V14.1395H91.9071V7.06977ZM77.7675 7.06977H84.8373V14.1395H77.7675V7.06977ZM77.7675 63.6279H84.8373V49.4884H70.6978V42.4186H84.8373V35.3488H70.6978V28.2791H84.8373V14.1395H91.9071V21.2093H98.9768V63.6279H91.9071V70.6977H77.7675V63.6279ZM8.84147e-05 14.1395H7.06986V21.2093H8.84147e-05V14.1395ZM21.2094 21.2093H42.4187V35.3488H35.3489V49.4884H28.2792V28.2791H21.2094V21.2093ZM106.047 21.2093H113.116V49.4884H106.047V21.2093ZM14.1396 28.2791H21.2094V35.3488H14.1396V28.2791ZM21.2094 49.4884H28.2792V63.6279H21.2094V49.4884ZM7.06986 70.6977H14.1396V63.6279H21.2094V70.6977H35.3489V77.7675H28.2792V84.8372H14.1396V77.7675H7.06986V70.6977ZM35.3489 63.6279H42.4187V70.6977H35.3489V63.6279ZM113.116 63.6279H120.186V70.6977H113.116V63.6279ZM106.047 70.6977H113.116V77.7675H106.047V70.6977ZM8.84147e-05 77.7675H7.06986V84.8372H8.84147e-05V77.7675Z" fill="#869D94"/>
</svg>
