<svg width="63" height="63" viewBox="0 0 63 63" fill="none" xmlns="http://www.w3.org/2000/svg">
  <rect width="63" height="63" rx="31.5" fill="url(#paint0_linear_35_26)" />
  <path d="M44.0826 16.5714H48.654V18.8571H50.9397V21.1429H46.3683V18.8571H44.0826V16.5714ZM28.0826 34.8571H23.5112V32.5714H28.0826V23.4286H25.7969V21.1429H21.2254V18.8571H16.654V16.5714H28.0826V18.8571H32.654V16.5714H37.2254V18.8571H34.9397V21.1429H32.654V37.1429H34.9397V39.4286H37.2254V41.7143H46.3683V44H32.654V41.7143H30.3683V39.4286H28.0826V34.8571ZM50.9397 16.5714H53.2254V18.8571H50.9397V16.5714ZM14.3683 18.8571H16.654V21.1429H14.3683V18.8571ZM41.7969 18.8571H44.0826V21.1429H41.7969V18.8571ZM37.2254 18.8571H39.5112V21.1429H37.2254V18.8571ZM37.2254 37.1429H39.5112V32.5714H34.9397V30.2857H39.5112V28H34.9397V25.7143H39.5112V21.1429H41.7969V23.4286H44.0826V37.1429H41.7969V39.4286H37.2254V37.1429ZM12.0826 21.1429H14.3683V23.4286H12.0826V21.1429ZM18.9397 23.4286H25.7969V28H23.5112V32.5714H21.2254V25.7143H18.9397V23.4286ZM46.3683 23.4286H48.654V32.5714H46.3683V23.4286ZM16.654 25.7143H18.9397V28H16.654V25.7143ZM18.9397 32.5714H21.2254V37.1429H18.9397V32.5714ZM14.3683 39.4286H16.654V37.1429H18.9397V39.4286H23.5112V41.7143H21.2254V44H16.654V41.7143H14.3683V39.4286ZM23.5112 37.1429H25.7969V39.4286H23.5112V37.1429ZM48.654 37.1429H50.9397V39.4286H48.654V37.1429ZM46.3683 39.4286H48.654V41.7143H46.3683V39.4286ZM12.0826 41.7143H14.3683V44H12.0826V41.7143Z" fill="#869D94" />
  <defs>
    <linearGradient id="paint0_linear_35_26" x1="7.65655" y1="-1.1976e-06" x2="55.3435" y2="63" gradientUnits="userSpaceOnUse">
      <stop stop-color="#0D1311" />
      <stop offset="1" stop-color="#1A211E" />
    </linearGradient>
  </defs>
</svg>
